<?xml version="1.0" standalone="no"?>
<!DOCTYPE svg PUBLIC "-//W3C//DTD SVG 20010904//EN"
 "http://www.w3.org/TR/2001/REC-SVG-20010904/DTD/svg10.dtd">
<svg version="1.0" xmlns="http://www.w3.org/2000/svg"
 width="500.000000pt" height="500.000000pt" viewBox="0 0 500.000000 500.000000"
 preserveAspectRatio="xMidYMid meet">

<g transform="translate(0.000000,500.000000) scale(0.100000,-0.100000)"
fill="#FFFFFF" stroke="currentColor">
<path d="M2418 4581 c-79 -26 -170 -114 -188 -182 -12 -42 -9 -107 4 -140 6
-14 -2 -18 -41 -23 -280 -40 -648 -230 -863 -445 -123 -124 -145 -151 -216
-270 -35 -58 -70 -115 -78 -126 -14 -19 -15 -19 -16 -1 0 32 -42 95 -81 122
-46 32 -117 36 -166 11 -38 -20 -73 -82 -73 -129 0 -39 30 -92 61 -108 62 -34
149 8 135 65 -7 26 -8 27 -27 9 -27 -24 -70 -9 -84 30 -8 24 -6 31 14 47 86
70 197 -76 147 -195 -19 -45 -67 -66 -154 -66 l-71 0 -90 -121 c-50 -67 -91
-130 -91 -140 0 -23 30 -40 58 -32 18 4 22 13 22 43 0 29 11 51 50 104 28 36
54 66 59 66 5 0 34 -33 65 -74 l56 -73 0 -127 0 -126 -40 0 -40 0 0 43 c0 24
-2 46 -5 48 -2 3 -20 3 -40 1 l-35 -4 0 -54 c0 -49 -3 -55 -28 -68 -34 -18
-182 -154 -182 -167 0 -6 41 -52 90 -103 85 -88 90 -95 90 -137 1 -115 62
-418 109 -536 186 -472 616 -868 1116 -1031 127 -41 310 -82 369 -82 71 0 164
-74 208 -165 12 -25 24 -45 28 -45 3 0 16 20 29 45 13 25 50 70 82 100 49 45
67 55 106 60 250 32 455 90 635 180 407 204 746 579 892 983 41 114 79 308 91
457 l7 90 91 93 92 94 -80 74 c-44 42 -93 82 -108 90 -27 14 -29 19 -25 64 3
48 2 49 -27 53 -16 2 -9 3 17 2 26 -1 52 1 57 4 5 3 11 26 13 51 3 42 5 45 33
45 80 1 73 36 -32 178 l-88 116 -78 1 c-120 0 -167 37 -167 129 0 108 99 192
154 132 24 -26 17 -62 -16 -80 -24 -14 -28 -14 -46 2 -39 35 -46 -27 -7 -63
52 -49 141 -16 164 60 16 53 7 93 -31 136 -77 87 -208 57 -267 -61 -13 -25
-25 -45 -26 -43 -2 2 -33 52 -69 111 -161 265 -373 454 -676 600 -115 56 -278
110 -382 128 l-77 13 6 67 c5 60 3 74 -21 123 -45 91 -128 146 -231 152 -33 2
-72 0 -87 -5z m105 -80 c9 -16 17 -37 17 -46 0 -19 -40 -95 -50 -95 -7 0 -50
82 -50 96 0 18 40 74 53 74 7 0 20 -13 30 -29z m-134 -87 c15 -9 36 -36 47
-60 17 -40 22 -44 55 -44 33 0 37 3 43 31 3 17 19 44 35 60 23 23 38 29 72 29
l42 0 -6 -41 c-6 -48 -37 -84 -77 -93 l-29 -5 29 -29 c15 -16 34 -47 40 -69
12 -40 13 -41 44 -32 50 15 105 11 211 -15 179 -44 417 -157 519 -247 l33 -29
-17 -52 -17 -53 -119 0 -119 0 -3 32 c-3 30 -5 32 -33 26 -25 -5 -29 -2 -29
15 0 12 -4 23 -9 26 -16 10 -41 -6 -41 -26 0 -15 -6 -19 -27 -16 -25 3 -28 -1
-31 -29 -4 -40 -46 -68 -117 -78 -80 -10 -143 -58 -185 -140 l-35 -68 -3 77
c-3 73 -4 76 -27 76 -33 0 -33 37 0 68 55 53 37 139 -41 193 -31 21 -46 40
-54 67 -13 46 -13 72 0 72 23 0 50 45 50 83 0 84 -107 131 -165 72 -35 -34
-35 -106 0 -141 44 -44 29 -96 -51 -170 -50 -47 -54 -53 -54 -96 0 -35 6 -54
26 -77 31 -37 29 -75 -3 -79 -22 -3 -23 -8 -24 -85 0 -67 -2 -77 -11 -57 -6
14 -18 43 -26 64 -18 42 -71 100 -112 121 -14 7 -47 16 -73 20 -62 10 -111 42
-115 78 -3 22 -8 27 -33 27 -24 0 -29 4 -29 25 0 20 -5 25 -25 25 -20 0 -25
-5 -25 -26 0 -23 -3 -26 -30 -22 -28 4 -30 2 -30 -28 l0 -32 -120 -1 c-109 -2
-120 0 -120 16 -1 10 -7 35 -14 55 -13 35 -12 38 13 62 54 52 241 154 364 199
162 60 282 84 348 70 l49 -10 10 38 c6 20 23 51 38 67 l28 30 -29 9 c-37 10
-66 47 -74 96 -6 36 -5 37 27 37 17 0 44 -7 59 -16z m134 -256 c7 -21 -12 -48
-34 -48 -22 0 -34 22 -25 45 7 18 53 20 59 3z m-37 -270 c-16 -56 -29 -137
-23 -152 4 -9 18 -16 32 -16 22 0 25 -4 25 -35 l0 -35 -55 0 -55 0 0 35 c0 26
-7 42 -25 58 -15 13 -28 37 -31 58 -5 30 -1 41 26 72 27 31 39 37 72 37 37 0
40 -2 34 -22z m-996 -87 c0 -20 -39 -41 -73 -41 -20 1 -18 5 17 35 40 35 56
37 56 6z m2040 -20 c0 -6 -9 -9 -19 -8 -11 0 -17 5 -15 9 7 11 34 10 34 -1z
m14 -13 c-5 -7 -2 -9 9 -5 11 4 15 0 14 -12 -1 -22 -27 -24 -28 -2 0 10 -3 11
-5 4 -3 -7 -12 -9 -20 -6 -12 4 -10 8 8 18 30 17 30 17 22 3z m71 -113 c33 -1
65 -3 71 -3 11 -2 114 -144 114 -158 0 -4 -41 -4 -90 -2 -68 4 -102 11 -140
30 -27 13 -47 21 -44 16 3 -4 3 -8 0 -8 -11 0 -46 80 -46 104 0 26 21 37 55
28 11 -3 47 -6 80 -7z m-2135 -5 c0 -4 -16 -25 -36 -48 -32 -37 -148 -106
-171 -101 -4 1 -21 -3 -36 -9 -47 -20 -58 -16 -45 13 6 14 14 25 18 25 4 0 12
12 19 27 7 15 25 43 41 62 l28 36 91 0 c50 1 91 -2 91 -5z m1024 -46 c12 -5
16 -20 16 -60 l0 -54 -75 0 -75 0 0 53 c0 30 3 57 7 60 8 9 106 9 127 1z
m-654 -29 c0 -2 -7 -22 -16 -44 -11 -27 -23 -41 -42 -46 -14 -3 -37 -15 -51
-25 -24 -16 -156 -71 -258 -106 -38 -13 -45 -13 -68 2 -14 9 -22 20 -19 25 3
5 2 9 -3 8 -35 -6 -29 5 12 23 28 11 100 43 160 71 172 79 218 97 253 97 17 0
32 -2 32 -5z m235 -14 c68 -31 133 -121 88 -121 -10 0 -34 -9 -53 -20 -33 -19
-34 -19 -12 -1 26 23 29 33 5 24 -12 -5 -14 -3 -8 7 6 10 4 12 -9 7 -11 -5
-15 -3 -10 5 5 8 2 9 -10 5 -11 -4 -15 -3 -10 4 4 7 -4 9 -25 6 -51 -8 -72 3
-92 50 -10 25 -19 47 -19 49 0 13 120 1 155 -15z m957 -6 c-2 -11 -9 -24 -16
-30 -7 -5 -11 -15 -9 -21 5 -16 -36 -25 -58 -13 -27 14 -35 11 -13 -7 17 -14
17 -15 1 -10 -10 3 -15 2 -12 -4 3 -5 -5 -20 -17 -32 -13 -13 -23 -26 -23 -30
0 -20 -18 -18 -39 5 -14 15 -20 29 -15 32 5 4 9 1 9 -5 0 -6 5 -8 12 -4 9 6 9
9 0 12 -7 2 -12 10 -12 18 0 9 5 12 12 8 7 -4 8 -3 4 4 -4 6 -13 9 -21 6 -8
-4 -13 -10 -10 -14 3 -5 1 -11 -5 -15 -5 -3 -10 -1 -10 5 0 7 -7 5 -16 -4 -22
-22 -27 -20 -13 7 45 85 102 119 194 115 54 -3 60 -5 57 -23z m258 -20 c47
-20 109 -50 138 -67 29 -16 65 -34 80 -38 26 -8 26 -9 5 -15 -13 -4 -20 -11
-17 -16 5 -9 -9 -13 -35 -9 -12 1 -13 -1 -2 -13 10 -13 9 -15 -9 -10 -14 4
-19 11 -15 21 4 11 2 12 -8 4 -9 -8 -23 -6 -52 7 -22 10 -58 24 -80 31 -22 7
-52 21 -66 31 -14 10 -37 21 -50 24 -17 4 -30 18 -40 43 -7 20 -16 41 -18 46
-8 18 87 -4 169 -39z m-1392 -112 c15 -11 41 -41 58 -67 18 -26 41 -57 53 -70
17 -18 21 -35 21 -94 l0 -72 80 0 80 0 0 45 0 45 285 0 285 0 0 -45 0 -45 75
0 75 0 0 74 0 75 39 22 c21 12 62 48 90 80 50 57 85 70 74 28 -6 -23 45 -75
109 -111 l43 -23 3 -314 2 -313 -38 31 c-52 40 -82 51 -148 51 -62 0 -105 -15
-150 -53 l-32 -27 -7 38 c-9 49 -48 116 -83 141 -16 11 -49 25 -75 32 -44 11
-47 13 -47 44 0 47 -29 80 -63 71 -23 -5 -27 -12 -27 -44 0 -47 -8 -57 -47
-65 -33 -6 -33 -6 -33 34 0 22 -5 49 -10 60 -23 43 -70 9 -70 -52 0 -35 -3
-39 -25 -40 -14 -1 -31 -2 -37 -3 -8 -1 -15 17 -18 48 -6 55 -23 72 -63 62
-25 -6 -27 -11 -27 -55 l0 -49 -51 -12 c-87 -21 -159 -109 -159 -193 0 -16 -4
-15 -32 6 -58 43 -95 57 -153 57 -64 0 -106 -15 -152 -54 l-33 -28 0 314 0
314 45 32 c43 30 57 52 34 52 -5 0 -8 4 -5 9 4 5 -10 4 -29 -2 -19 -6 -38 -7
-41 -4 -12 12 19 68 45 83 36 20 124 13 159 -13z m1127 16 c8 -12 -70 -89 -90
-89 -24 0 -18 48 10 75 25 26 69 33 80 14z m-512 -25 c48 -25 180 -102 219
-129 14 -9 -48 -11 -278 -11 l-295 1 7 30 c12 57 53 113 94 128 8 3 57 6 108
6 81 1 99 -2 145 -25z m1046 -8 c9 -11 9 -16 -1 -22 -7 -4 -10 -4 -6 1 4 4 3
14 -3 22 -6 7 -9 13 -6 13 2 0 10 -6 16 -14z m-409 -30 c0 -3 -4 -8 -10 -11
-5 -3 -10 -1 -10 4 0 6 5 11 10 11 6 0 10 -2 10 -4z m-1844 -35 c41 -19 84
-72 84 -105 0 -9 11 -21 25 -26 29 -11 31 -17 8 -42 -19 -21 -43 -24 -43 -5 0
32 -49 61 -111 65 -42 3 -67 10 -80 23 -17 17 -43 24 -76 20 -26 -3 -21 18 12
43 65 50 114 57 181 27z m1878 11 c3 -5 -1 -9 -9 -9 -8 0 -12 4 -9 9 3 4 7 8
9 8 2 0 6 -4 9 -8z m604 -7 c35 -15 82 -52 82 -64 0 -3 -17 -7 -37 -9 -20 -1
-47 -11 -58 -22 -14 -13 -35 -20 -63 -20 -59 0 -109 -23 -124 -57 -7 -15 -13
-29 -14 -31 -3 -5 -54 41 -54 49 0 4 9 10 20 14 12 4 23 21 30 44 24 89 126
134 218 96z m271 -240 c25 -33 61 -74 78 -92 33 -31 33 -32 33 -127 0 -57 4
-96 10 -96 6 0 11 -8 11 -17 1 -17 2 -17 6 0 9 33 23 16 23 -28 l0 -45 -75 0
-75 0 0 40 0 40 -59 0 -59 0 -7 -40 c-7 -39 -8 -40 -46 -40 l-39 0 0 140 c0
108 -3 140 -13 140 -31 0 -37 -24 -37 -152 l0 -128 -41 0 -41 0 4 124 c3 123
10 154 28 126 6 -8 10 -10 10 -5 0 6 16 27 36 47 20 22 32 43 28 50 -4 6 -3 8
3 5 5 -3 25 10 44 30 19 20 27 32 19 28 -8 -5 5 10 30 33 24 23 41 44 37 48
-4 4 -7 1 -7 -6 0 -7 -2 -11 -5 -8 -3 3 -3 13 1 22 6 15 9 15 31 -6 14 -13 46
-50 72 -83z m-2517 40 c29 -14 61 -25 71 -25 13 0 17 -8 17 -35 0 -41 -15 -45
-80 -19 -40 16 -70 54 -70 89 0 19 -2 19 62 -10z m1938 15 c0 -54 -63 -110
-124 -110 -23 0 -26 4 -26 34 0 30 3 34 33 40 18 3 48 15 67 25 41 23 50 25
50 11z m-2410 -60 c-22 -31 -39 -37 -55 -21 -6 5 -28 18 -50 30 l-40 21 83 0
83 0 -21 -30z m96 -44 c78 -102 74 -92 74 -207 0 -88 -3 -108 -16 -113 -34
-13 -44 -7 -44 29 0 35 0 35 -45 35 -43 0 -45 -1 -45 -30 0 -28 -2 -30 -40
-30 l-40 0 0 109 0 108 55 69 c30 38 55 73 55 79 0 10 3 7 46 -49z m183 29
c36 -18 81 -71 81 -95 0 -16 6 -18 34 -13 53 8 101 -5 136 -37 30 -28 31 -31
29 -114 l-2 -86 -27 17 c-24 14 -26 19 -17 34 9 15 8 22 -5 35 -9 9 -24 14
-32 11 -9 -4 -18 -5 -20 -4 -2 1 -14 -7 -27 -18 -13 -11 -18 -13 -11 -4 6 9 8
20 4 24 -4 5 -1 5 6 1 6 -4 12 -3 12 1 0 5 -6 15 -12 22 -11 10 -9 11 7 6 18
-6 18 -5 2 5 -9 6 -27 8 -38 5 -11 -4 -27 -1 -36 7 -10 7 -14 8 -10 1 14 -22
-63 -7 -86 17 -12 13 -16 20 -9 16 16 -9 7 38 -14 71 -9 14 -10 24 -4 28 15 9
2 25 -14 19 -8 -3 -23 7 -35 23 -21 26 -21 28 -4 34 29 12 62 10 92 -6z m2369
0 c3 -3 -8 -19 -25 -35 -21 -20 -33 -26 -37 -17 -3 6 -3 2 0 -10 3 -13 1 -23
-4 -23 -5 0 -9 -6 -9 -12 -4 -89 -7 -100 -33 -110 -14 -5 -44 -7 -67 -3 -35 5
-46 2 -63 -15 -12 -12 -19 -28 -16 -35 3 -10 -2 -9 -23 3 -33 18 -66 10 -58
-16 2 -9 6 -23 8 -30 2 -7 -11 -19 -28 -27 l-33 -14 0 80 c0 44 5 89 10 100
18 33 87 61 141 57 45 -3 49 -1 54 23 6 26 42 66 80 88 20 11 91 9 103 -4z
m-2343 -305 c-3 -5 0 -11 5 -13 6 -3 5 -4 -2 -2 -7 1 -12 9 -10 16 1 9 -3 8
-11 -3 -15 -19 -67 -25 -67 -8 0 18 63 40 77 28 7 -6 11 -14 8 -18z m2248 0
c-4 -16 -14 -20 -47 -20 l-41 1 24 19 c32 27 71 27 64 0z m-908 0 c81 -18 118
-103 100 -229 l-7 -50 -136 -3 -137 -3 -2 -79 c-1 -44 -7 -92 -14 -108 -8 -20
-10 -69 -5 -173 4 -79 4 -150 0 -156 -4 -6 -7 -29 -8 -50 -1 -36 1 -39 26 -39
43 0 58 32 59 125 1 99 11 170 24 170 6 0 9 4 7 9 -2 5 4 4 12 -3 12 -10 15
-8 19 11 3 13 4 -59 3 -159 l-1 -181 -31 -39 c-41 -50 -89 -66 -181 -60 -76 6
-90 2 -71 -20 8 -11 7 -12 -6 -7 -12 5 -15 2 -10 -10 4 -10 13 -15 20 -12 8 3
13 0 11 -6 -3 -18 63 -31 130 -25 51 4 72 11 120 44 37 25 67 56 83 84 25 44
25 46 28 327 l3 282 30 0 29 0 2 -227 c3 -266 1 -325 -12 -374 -14 -50 -77
-119 -141 -153 -117 -62 -153 -120 -147 -237 5 -122 38 -158 206 -230 29 -13
55 -26 57 -29 2 -3 -131 -5 -295 -5 -165 0 -296 3 -291 8 4 4 45 23 91 42 133
55 174 109 174 230 0 104 -39 160 -153 221 -29 15 -70 47 -90 71 -65 73 -71
108 -71 419 l0 274 35 0 35 0 0 -125 0 -125 35 0 c21 0 35 -5 36 -12 0 -7 4
-3 10 10 5 13 6 87 2 173 l-6 149 -74 0 -73 0 0 85 c0 79 10 124 38 163 22 32
85 41 292 41 113 0 223 -4 245 -9z m944 -13 c0 -9 -2 -8 -6 1 -2 6 -10 9 -15
6 -7 -4 -8 -2 -4 5 9 13 26 5 25 -12z m-2329 -107 c0 -43 -3 -50 -20 -50 -17
0 -20 7 -20 50 0 43 3 50 20 50 17 0 20 -7 20 -50z m2290 0 l0 -50 -40 0 -40
0 0 50 0 50 40 0 40 0 0 -50z m-2030 18 c45 -31 54 -56 12 -34 -17 9 -51 16
-77 16 -46 0 -54 7 -33 28 19 19 62 14 98 -10z m1874 16 c32 -12 17 -34 -22
-34 -21 0 -54 -9 -75 -19 -26 -13 -37 -15 -37 -6 0 35 91 75 134 59z m-1543
-54 c78 -22 141 -123 124 -200 -8 -37 -56 -95 -96 -116 -40 -20 -118 -18 -155
5 -79 48 -111 136 -76 213 37 85 115 122 203 98z m1238 -13 c89 -46 115 -159
58 -245 -31 -47 -80 -72 -142 -72 -53 0 -77 10 -123 53 -81 77 -55 209 52 262
62 31 101 32 155 2z m-2225 2 c35 -10 37 -12 23 -26 -12 -12 -38 -17 -99 -18
-92 -1 -154 -23 -220 -75 -42 -34 -51 -36 -67 -16 -9 11 -4 21 26 50 84 79
227 116 337 85z m3326 -18 c30 -11 77 -40 105 -64 49 -44 49 -44 26 -56 -18
-10 -26 -10 -44 3 -73 54 -98 67 -152 81 -33 9 -86 15 -118 14 -78 -3 -106 27
-42 45 41 11 171 -2 225 -23z m-3068 -83 c25 -33 23 -35 -26 -33 -44 1 -69 14
-86 44 -7 14 -1 16 43 14 40 -1 54 -6 69 -25z m2586 24 c10 -7 7 -14 -11 -33
-12 -13 -38 -44 -57 -69 -47 -62 -52 -64 -66 -24 -14 41 -41 84 -53 84 -4 0
-21 -18 -36 -40 -27 -39 -45 -51 -45 -30 0 17 -50 11 -94 -11 -22 -12 -49 -25
-58 -30 -28 -14 -21 5 20 58 20 26 45 60 55 76 l17 27 158 0 c86 0 163 -4 170
-8z m-2698 -97 l73 -95 252 0 252 0 6 -82 c4 -46 7 -104 7 -130 l0 -47 -30 6
c-21 4 -36 0 -49 -11 -15 -14 -24 -15 -40 -7 -38 21 -77 13 -105 -20 -14 -17
-26 -39 -26 -49 0 -13 -12 -21 -44 -29 -25 -6 -50 -11 -55 -11 -7 0 -11 36
-11 99 0 80 -3 103 -18 121 -21 26 -71 35 -79 14 -3 -8 -9 -14 -15 -14 -5 0
-6 5 -2 12 4 7 3 8 -4 4 -9 -5 -9 -13 -1 -28 8 -15 8 -22 -1 -28 -9 -5 -9 -9
-1 -14 14 -9 15 -103 1 -111 -6 -4 -8 -11 -5 -16 4 -5 0 -9 -7 -9 -8 0 -9 -3
-3 -8 13 -9 13 -39 0 -50 -6 -4 -27 -14 -48 -21 -31 -10 -45 -10 -68 -1 -27
12 -40 30 -20 30 22 0 71 54 80 87 11 40 -6 99 -32 109 -9 3 -17 28 -22 67
-11 101 -45 122 -45 29 0 -68 -8 -81 -31 -51 -20 27 -54 20 -45 -9 7 -21 -36
-68 -53 -57 -7 4 -11 50 -11 120 0 105 2 117 25 152 48 74 96 143 99 143 2 0
36 -43 76 -95z m284 83 c-3 -4 -10 -6 -15 -3 -5 4 -9 -1 -9 -10 0 -9 -4 -13
-10 -10 -9 5 -14 -6 -12 -26 1 -3 -6 -6 -14 -6 -10 0 -11 4 -4 11 16 16 12 39
-5 32 -40 -16 -49 -19 -42 -11 4 5 -5 14 -20 21 -25 12 -20 13 54 12 45 0 80
-5 77 -10z m2496 6 c0 -8 -19 -13 -24 -6 -3 5 1 9 9 9 8 0 15 -2 15 -3z m180
-113 l45 -66 3 -106 c3 -81 0 -108 -11 -117 -20 -17 -61 28 -53 56 4 11 2 23
-4 27 -5 3 -10 19 -10 34 0 16 -7 34 -15 41 -13 11 -15 5 -15 -41 0 -30 -5
-61 -11 -69 -8 -13 -12 -12 -26 8 -21 29 -43 28 -43 -2 0 -14 -8 -31 -18 -38
-49 -35 -51 -98 -6 -166 14 -20 27 -36 30 -34 14 8 24 -1 22 -22 -2 -18 -6
-23 -18 -17 -8 4 -54 14 -102 20 l-88 13 0 121 c0 130 -9 157 -55 157 -40 0
-55 -39 -55 -145 l0 -95 -30 0 c-25 0 -32 6 -45 37 -30 70 -62 88 -118 62 -20
-9 -30 -8 -51 6 -16 11 -35 15 -51 11 l-25 -6 0 129 c0 125 1 130 22 137 12 4
130 5 263 3 l240 -4 70 93 70 92 20 -27 c11 -15 40 -56 65 -92z m-3149 70
c-15 -21 -33 -31 -70 -38 -48 -9 -50 -9 -40 9 11 21 82 57 112 58 17 0 17 -2
-2 -29z m3226 18 c28 -10 73 -47 73 -59 0 -15 -100 16 -114 35 -28 37 -14 45
41 24z m-3307 -209 c0 -6 -4 -10 -10 -10 -5 0 -10 -22 -10 -49 0 -52 -8 -65
-34 -55 -12 5 -16 20 -16 59 0 63 19 91 51 75 10 -6 19 -15 19 -20z m3404 4
c3 -8 -1 -14 -8 -14 -18 0 -26 -22 -26 -72 0 -32 -3 -39 -17 -36 -13 2 -19 15
-21 47 -2 25 -1 55 2 67 9 34 58 40 70 8z m-2154 -154 l0 -130 -59 0 c-64 0
-93 17 -39 22 l33 3 3 95 c2 80 6 98 24 117 12 13 25 23 30 23 4 0 8 -58 8
-130z m904 43 c3 -25 6 -70 6 -99 0 -54 0 -54 31 -54 17 0 28 -4 24 -10 -3 -5
-33 -10 -66 -10 l-60 0 2 118 c0 64 3 120 6 124 2 4 14 1 27 -7 17 -11 25 -29
30 -62z m-1081 6 c52 -14 46 -29 -13 -29 l-50 0 0 -34 c0 -36 -26 -58 -42 -34
-22 35 -1 85 42 101 22 8 21 8 63 -4z m1261 1 c31 -11 35 -31 6 -23 -27 7 -50
-14 -50 -46 0 -25 -2 -26 -40 -23 -31 3 -40 8 -40 22 0 33 13 52 44 66 38 16
48 17 80 4z m-2323 -91 c11 -5 17 -14 14 -20 -4 -5 -10 -7 -14 -4 -5 2 -19 -7
-31 -20 -30 -32 -50 -32 -50 -1 0 46 40 68 81 45z m202 -3 c31 -1 52 -26 23
-26 -9 0 -16 -4 -16 -9 0 -5 -13 -19 -29 -30 -27 -19 -31 -20 -45 -5 -9 8 -16
24 -16 34 0 23 28 52 42 44 6 -4 25 -7 41 -8z m2960 6 c32 17 31 -19 -1 -50
-17 -17 -28 -33 -25 -36 4 -3 -3 -6 -13 -6 -27 0 -44 19 -44 50 0 35 17 51 44
40 13 -4 29 -4 39 2z m221 -5 c17 -13 16 -15 -13 -40 -17 -14 -31 -30 -31 -36
0 -14 -13 -14 -28 1 -28 28 -3 88 37 88 9 0 25 -6 35 -13z m-2550 -80 c15 -23
0 -32 -30 -18 -22 10 -24 14 -14 27 15 17 29 14 44 -9z m-109 -17 c80 -55 199
-63 275 -17 28 17 32 18 21 4 -8 -10 -14 -32 -15 -49 -1 -38 -26 -52 -26 -14
0 28 -11 31 -68 20 -27 -5 -33 -12 -41 -48 -5 -22 -9 -32 -10 -21 -1 17 -9 20
-63 22 -67 3 -81 13 -74 54 4 19 -2 33 -18 48 l-22 21 -1 -48 c0 -55 -20 -132
-33 -132 -16 0 -12 78 7 137 9 29 18 53 21 53 2 0 23 -13 47 -30z m228 16 c7
-19 -1 -26 -30 -26 -22 0 -31 19 -16 33 11 12 41 7 46 -7z m1426 -56 c74 -20
150 -2 241 56 22 14 22 14 -2 -8 -27 -23 -28 -28 -30 -123 -1 -66 -3 -80 -5
-42 -4 58 -7 61 -50 60 -8 -1 -5 11 9 29 20 28 20 30 2 25 -10 -3 -32 -8 -49
-12 -39 -9 -43 -17 -38 -85 2 -34 -1 -61 -7 -65 -6 -4 -10 12 -10 44 l0 50
-54 6 c-30 4 -59 5 -64 1 -5 -3 -7 -31 -6 -63 3 -54 3 -55 -6 -18 -5 22 -9 67
-9 101 -1 47 -5 65 -21 79 -19 17 -19 17 -13 -17 3 -20 0 -45 -6 -57 -12 -22
-57 -30 -48 -8 2 6 13 35 23 64 l18 51 41 -28 c22 -15 60 -33 84 -40z m39 48
c3 -13 -3 -18 -22 -18 -27 0 -41 14 -31 31 10 16 49 6 53 -13z m112 7 c0 -15
-46 -32 -57 -21 -10 9 18 36 38 36 11 0 19 -7 19 -15z m-2382 -70 c37 -11 20
-28 -45 -48 -55 -16 -64 -17 -97 -3 -45 19 -45 32 -2 50 18 8 42 25 52 40 l19
25 25 -28 c14 -16 35 -32 48 -36z m3121 37 c5 -10 28 -27 50 -37 66 -29 50
-55 -33 -55 -48 0 -104 16 -125 35 -11 11 -7 15 23 25 21 6 42 20 49 31 15 24
24 24 36 1z m-2029 -80 c0 -31 4 -71 9 -89 l9 -32 -31 14 c-18 7 -40 16 -49
19 -22 7 -24 36 -3 36 14 0 35 37 35 61 0 5 -13 9 -29 9 -20 0 -30 6 -34 20
-5 18 0 20 44 20 l49 0 0 -58z m940 54 c0 -20 -16 -36 -36 -36 -20 0 -24 -5
-24 -29 0 -20 6 -30 20 -34 22 -6 28 -47 7 -47 -7 0 -30 -9 -51 -19 -33 -18
-37 -18 -31 -3 4 9 10 52 13 95 l5 77 48 0 c27 0 49 -2 49 -4z m467 -28 c-3
-7 -5 -2 -5 12 0 14 2 19 5 13 2 -7 2 -19 0 -25z m-2107 -56 c0 -33 -95 -45
-124 -16 -9 8 -16 17 -16 20 0 2 32 4 70 4 39 0 70 -4 70 -8z m2365 -2 c-3 -6
-23 -19 -43 -30 -20 -10 -30 -19 -22 -20 11 0 11 -3 2 -12 -7 -7 -12 -19 -12
-28 0 -24 -21 -42 -36 -29 -8 7 -14 6 -20 -2 -4 -8 -3 -9 4 -5 7 4 12 2 12 -4
0 -6 -13 -8 -32 -5 -52 9 -69 16 -63 26 3 5 0 6 -8 3 -18 -6 -32 25 -17 40 5
5 31 13 58 16 42 4 47 8 50 33 3 26 5 27 68 27 41 0 63 -4 59 -10z m-1797 -19
c16 -10 13 -42 -4 -48 -7 -2 -14 10 -16 27 -5 32 -1 35 20 21z m1132 -21 c0
-13 -7 -20 -20 -20 -13 0 -20 7 -20 20 0 13 7 20 20 20 13 0 20 -7 20 -20z
m-1752 -11 c65 -1 72 -2 45 -10 -23 -7 -33 -16 -33 -29 0 -11 -3 -20 -7 -21
-35 -4 -61 -4 -58 0 2 2 0 12 -6 23 -6 11 -13 17 -16 14 -8 -7 -33 13 -33 26
0 6 7 7 16 4 9 -3 50 -6 92 -7z m379 -11 c-3 -8 -6 -5 -6 6 -1 11 2 17 5 13 3
-3 4 -12 1 -19z m-607 2 c0 -5 -10 -10 -22 -10 -19 0 -20 2 -8 10 19 13 30 13
30 0z m2840 0 c13 -8 13 -10 -2 -10 -9 0 -20 5 -23 10 -8 13 5 13 25 0z
m-2800 -27 c0 -1 -9 -7 -20 -13 -20 -11 -44 -5 -36 8 4 6 56 10 56 5z m2785
-2 c3 -5 1 -12 -4 -15 -12 -8 -41 3 -41 15 0 12 37 12 45 0z m-2902 -17 c19
-9 41 -29 51 -44 17 -29 22 -80 8 -80 -14 0 -52 40 -52 54 0 14 -75 56 -98 56
-19 0 -14 18 6 23 33 9 52 7 85 -9z m3045 10 c32 -9 27 -21 -13 -28 -46 -9
-86 -45 -91 -81 -3 -29 -2 -30 39 -27 45 3 74 -9 63 -27 -4 -6 -17 -11 -30
-11 -13 0 -31 -9 -40 -19 -20 -22 -46 -17 -46 9 0 9 -9 25 -20 35 -25 23 -25
51 0 93 29 47 85 70 138 56z m-2271 -70 c30 -18 32 -18 51 -1 14 13 41 19 93
22 85 4 125 -9 157 -50 26 -33 28 -47 6 -43 -24 4 -29 -20 -7 -30 22 -8 28
-29 13 -46 -5 -7 -7 -16 -3 -19 16 -16 -29 -17 -51 0 -33 24 -33 37 2 29 15
-3 21 -3 15 0 -18 8 -16 27 2 20 17 -6 21 9 5 19 -6 4 -9 14 -8 22 2 10 -5 17
-17 18 -11 1 -35 5 -52 9 -42 10 -68 -9 -68 -48 1 -19 8 -32 24 -41 22 -11 18
-12 -37 -14 -51 -1 -63 2 -71 18 -6 10 -7 21 -4 25 3 3 -1 6 -11 6 -11 0 -15
5 -10 13 4 6 4 9 0 5 -4 -3 -31 5 -59 18 -85 39 -170 26 -217 -34 -19 -23 -23
-24 -45 -12 -14 7 -25 17 -25 21 0 19 68 83 105 101 51 24 164 20 212 -8z
m1349 1 c24 -16 28 -16 74 4 57 24 145 28 193 8 32 -14 107 -88 107 -107 0 -5
-9 -14 -21 -21 -18 -9 -26 -6 -53 19 -17 17 -44 36 -59 41 -70 27 -160 -1
-216 -65 -25 -28 -37 -34 -71 -34 -45 0 -50 11 -23 49 9 14 11 21 5 17 -7 -4
-12 -1 -12 8 0 21 -36 39 -62 30 -27 -8 -48 -28 -48 -46 0 -10 3 -9 11 2 8 12
9 11 7 -6 -2 -11 4 -29 12 -39 14 -17 13 -18 -2 -13 -10 4 -19 1 -22 -8 -3 -9
-10 -13 -15 -10 -5 4 -11 1 -13 -6 -7 -19 -37 -1 -49 29 -23 60 11 130 75 158
40 17 150 11 182 -10z m-1962 6 c7 -11 -14 -20 -32 -13 -11 4 -11 6 0 13 17
11 26 11 32 0z m2669 -8 c-7 -2 -19 -2 -25 0 -7 3 -2 5 12 5 14 0 19 -2 13 -5z
m-2839 -73 c14 -5 30 -18 36 -30 9 -17 7 -22 -14 -31 -20 -10 -28 -9 -41 5 -9
9 -25 16 -36 16 -24 0 -37 29 -18 41 18 11 42 11 73 -1z m116 -10 c-20 -13
-33 -13 -25 0 3 6 14 10 23 10 15 0 15 -2 2 -10z m917 -24 c-4 -9 -12 -16 -18
-16 -8 0 -8 4 1 15 6 8 8 20 4 27 -5 10 -4 10 6 1 7 -6 10 -19 7 -27z m1848
24 c3 -6 -1 -7 -9 -4 -18 7 -21 14 -7 14 6 0 13 -4 16 -10z m-2537 -16 l30 -6
-21 -40 c-16 -29 -26 -38 -40 -34 -10 2 -46 0 -80 -4 -50 -8 -75 -19 -135 -60
-69 -48 -75 -50 -88 -33 -19 25 -17 36 9 52 183 117 245 141 325 125z m2466
-35 c36 -18 65 -34 63 -35 -1 -1 -53 -4 -115 -5 l-112 -3 -25 35 c-24 31 -24
34 -8 41 37 16 129 1 197 -33z m-414 -19 c30 -28 44 -64 16 -41 -21 18 -100
24 -139 12 -20 -7 -48 -26 -62 -43 -14 -17 -27 -29 -30 -27 -7 8 24 83 43 102
42 41 126 40 172 -3z m-1651 3 c17 -16 33 -41 37 -58 l7 -30 -24 22 c-70 64
-151 54 -156 -19 -2 -25 1 -28 27 -28 60 0 91 -69 52 -115 -25 -31 -49 -36
-86 -21 -81 34 -87 210 -8 259 15 9 48 17 74 17 38 0 54 -5 77 -27z m457 18
c-3 -5 1 -12 10 -15 8 -3 13 -2 10 3 -3 5 1 12 10 15 10 4 13 2 8 -6 -5 -8 -2
-9 9 -5 19 7 98 -25 117 -48 18 -22 25 -129 10 -165 -17 -40 -50 -63 -136 -92
-58 -19 -70 -21 -67 -8 2 8 -6 25 -17 38 -20 22 -29 23 -143 22 -128 -1 -167
2 -168 10 -1 3 4 24 11 47 12 39 15 42 39 35 46 -13 144 -6 180 12 53 28 102
91 117 149 1 4 2 9 3 12 0 3 4 5 7 5 3 0 3 -4 0 -9z m556 -21 c34 0 39 -3 56
-43 11 -24 38 -58 61 -76 37 -30 49 -33 109 -35 37 0 78 2 92 6 23 7 27 3 41
-37 15 -41 15 -45 0 -47 -25 -2 -34 -4 -55 -13 -10 -5 -26 -4 -35 2 -9 5 -29
8 -46 7 -16 -1 -59 -3 -93 -3 -55 -1 -65 -4 -69 -21 -3 -11 -9 -20 -14 -20 -5
0 -9 -9 -9 -20 0 -18 -2 -18 -27 -4 -16 8 -54 24 -86 35 -69 25 -90 57 -90
139 0 80 18 113 71 125 24 6 41 13 39 17 -2 3 1 2 7 -3 5 -5 27 -9 48 -9z
m-1275 -20 c2 0 -8 -63 -11 -67 -1 -1 -19 3 -39 9 -38 12 -44 25 -27 58 8 16
15 17 42 9 18 -5 34 -9 35 -9z m2088 -10 l16 -31 -37 -15 c-41 -17 -42 -17
-53 24 -8 28 -7 32 17 41 39 14 40 14 57 -19z m-2210 -71 c30 -8 45 -17 49
-32 6 -25 -1 -34 -29 -39 -14 -2 -20 2 -19 14 1 10 -3 15 -8 12 -5 -3 -7 -13
-4 -21 7 -16 -52 -91 -87 -110 -44 -24 -94 -16 -137 23 -22 20 -40 40 -40 44
0 5 13 13 29 18 16 6 37 22 47 37 36 56 111 76 199 54z m2379 0 c22 -6 53 -25
69 -43 17 -17 35 -30 42 -28 6 1 20 -7 30 -18 17 -19 17 -21 -24 -61 -40 -40
-43 -41 -93 -37 -46 5 -57 11 -90 48 -34 38 -38 48 -38 96 l0 54 33 0 c17 0
50 -5 71 -11z m-339 -33 c9 -14 15 -39 13 -58 -2 -27 -10 -36 -39 -51 -44 -21
-80 -10 -98 30 -16 34 -14 47 10 77 28 36 91 37 114 2z m-1937 -112 c30 -21
29 -59 -3 -80 -28 -18 -64 -13 -89 12 -22 21 -20 31 9 59 28 29 51 31 83 9z
m2117 4 c34 -15 44 -56 19 -75 -32 -23 -63 -26 -90 -8 -33 21 -30 64 6 82 31
16 33 16 65 1z m-1451 -123 l-26 -35 -237 0 c-206 1 -240 3 -269 19 -27 14
-31 19 -20 29 18 14 78 18 351 20 l228 2 -27 -35z m1195 26 c85 -7 102 -23 47
-46 -28 -12 -85 -15 -268 -15 l-233 0 -28 35 -28 35 218 -1 c120 -1 251 -4
292 -8z m-1801 -82 c53 -17 117 -63 141 -103 27 -43 26 -52 -5 -60 -22 -6 -32
-1 -59 28 -18 20 -41 36 -52 36 -10 0 -24 5 -31 10 -6 6 -10 7 -7 3 3 -4 -13
-13 -36 -20 l-41 -14 -61 58 c-34 32 -73 65 -85 73 -22 14 -14 15 87 8 62 -4
129 -12 149 -19z m2157 3 c-16 -11 -55 -42 -86 -70 l-56 -51 -40 12 c-22 7
-39 17 -37 25 1 7 0 8 -3 2 -2 -5 -10 -7 -15 -4 -7 4 -8 2 -4 -4 4 -7 -4 -14
-21 -18 -15 -3 -39 -19 -53 -36 -23 -26 -28 -28 -53 -19 l-28 11 22 39 c50 89
144 127 324 130 l80 1 -30 -18z m-905 -74 c0 -7 -7 -24 -16 -36 -13 -19 -24
-22 -79 -22 -58 0 -64 2 -67 23 -2 17 -10 23 -40 25 -30 3 -40 -1 -54 -22 -20
-31 -47 -33 -81 -6 -14 11 -37 20 -50 20 -20 0 -23 -4 -18 -20 6 -19 2 -20
-79 -20 -72 0 -89 3 -102 19 -16 18 -17 18 -34 1 -15 -15 -40 -17 -208 -18
l-190 -1 -11 29 -10 29 157 3 c593 11 882 9 882 -4z m288 2 l183 0 -15 -29
-15 -29 -196 1 c-186 0 -197 1 -211 21 -7 11 -14 24 -14 28 0 9 40 17 65 12
11 -2 102 -4 203 -4z m-961 -141 c31 -8 57 -25 84 -52 56 -58 52 -65 -27 -53
-64 9 -68 9 -86 -14 -20 -25 -16 -57 11 -78 14 -12 12 -12 -14 -6 -42 10 -42
9 -49 55 -8 50 -50 134 -73 148 -26 15 95 14 154 0z m917 -11 c-38 -43 -55
-79 -61 -128 -3 -27 -9 -47 -14 -45 -4 3 -9 0 -11 -5 -2 -6 -16 -13 -31 -15
l-27 -5 20 20 c22 22 25 42 9 71 -10 19 -17 20 -86 13 l-76 -7 20 29 c48 68
104 92 212 93 l64 1 -19 -22z m-1139 -19 c42 -37 65 -77 65 -114 0 -31 -1 -31
-140 26 -180 75 -173 71 -153 83 40 22 91 35 140 36 45 0 58 -5 88 -31z m1398
15 c26 -9 50 -20 53 -25 3 -5 -16 -19 -43 -30 -26 -11 -68 -30 -92 -40 -24
-11 -72 -31 -107 -43 l-64 -24 0 25 c0 47 57 130 100 146 30 11 108 7 153 -9z
m-658 -93 c21 -4 30 -12 30 -26 0 -22 -9 -23 -125 -10 -47 5 -82 2 -124 -9
-64 -17 -71 -16 -79 14 -4 16 1 21 21 26 15 3 32 7 37 9 18 6 209 3 240 -4z
m-92 -107 c3 -3 -9 -28 -28 -55 -18 -27 -35 -54 -38 -61 -3 -9 -14 -4 -35 16
-30 27 -30 30 -17 57 8 15 23 33 32 38 20 11 76 15 86 5z"/>
<path d="M2022 3988 c13 -24 37 -52 54 -63 17 -11 35 -29 40 -40 13 -29 64
-33 71 -6 3 11 19 25 37 31 18 6 46 24 62 42 l29 31 -58 -7 c-32 -3 -70 -14
-84 -23 -25 -16 -26 -16 -45 10 -21 29 -86 67 -113 67 -14 0 -13 -6 7 -42z"/>
<path d="M2922 4015 c-19 -8 -47 -29 -62 -45 -27 -29 -30 -30 -52 -16 -29 19
-128 33 -128 18 0 -16 60 -62 81 -62 11 0 24 -11 31 -24 6 -14 17 -27 25 -30
20 -8 53 11 53 32 1 9 15 26 33 37 17 11 42 39 55 63 26 46 20 51 -36 27z"/>
<path d="M1244 3562 c4 -7 2 -12 -5 -12 -7 0 -5 -6 5 -13 18 -13 18 -14 2 -20
-10 -4 -23 -4 -29 -1 -9 5 -9 4 -1 -5 9 -10 17 -10 32 -2 10 6 22 7 26 3 4 -3
4 1 0 11 -3 9 -10 17 -16 17 -5 0 -7 4 -3 9 3 5 0 13 -6 17 -8 4 -9 3 -5 -4z"/>
<path d="M2416 3545 c-8 -33 -1 -44 25 -38 15 4 19 12 17 32 -4 35 -34 40 -42
6z"/>
<path d="M2070 3494 c0 -2 9 -8 20 -14 11 -6 20 -7 20 -2 0 6 -9 12 -20 15
-11 3 -20 3 -20 1z"/>
<path d="M2946 3525 c-11 -8 -15 -15 -9 -15 6 0 16 7 23 15 16 19 11 19 -14 0z"/>
<path d="M3164 3228 c-5 -7 -8 -70 -6 -140 l4 -128 29 0 30 0 -3 138 c-3 130
-4 137 -24 140 -11 2 -25 -3 -30 -10z"/>
<path d="M1941 3222 c-1 -7 -6 -10 -11 -7 -19 12 -31 -49 -28 -149 l3 -101 33
-3 32 -3 0 108 c-1 69 -6 119 -15 138 -7 17 -14 24 -14 17z"/>
<path d="M1773 3208 c-4 -7 -9 -66 -11 -130 l-4 -118 31 0 31 0 1 83 c2 117
-1 161 -15 169 -16 11 -24 10 -33 -4z"/>
<path d="M3017 3204 c-4 -4 -7 -61 -7 -126 l0 -118 30 0 31 0 -3 123 c-3 114
-4 122 -23 125 -12 2 -24 0 -28 -4z"/>
<path d="M2290 3121 c-5 -11 -10 -36 -10 -55 0 -36 0 -36 45 -36 l45 0 0 43
c0 24 -5 48 -12 55 -18 18 -56 14 -68 -7z"/>
<path d="M2617 3133 c-4 -3 -7 -28 -7 -55 l0 -48 40 0 40 0 0 43 c0 24 -5 48
-12 55 -13 13 -50 16 -61 5z"/>
<path d="M2467 3104 c-4 -4 -7 -22 -7 -41 0 -29 3 -33 26 -33 23 0 25 3 22 37
-3 36 -23 54 -41 37z"/>
<path d="M2040 3080 c0 -18 7 -20 80 -20 73 0 80 2 80 20 0 18 -7 20 -80 20
-73 0 -80 -2 -80 -20z"/>
<path d="M2772 3083 c3 -15 16 -19 76 -21 67 -3 72 -1 72 18 0 18 -6 20 -76
20 -66 0 -75 -2 -72 -17z"/>
<path d="M2082 2978 c-7 -7 -12 -34 -12 -60 l0 -48 35 0 35 0 0 48 c0 47 -12
72 -35 72 -6 0 -16 -5 -23 -12z"/>
<path d="M2841 2976 c-7 -8 -11 -34 -9 -58 3 -44 9 -47 61 -39 12 2 8 86 -5
99 -16 16 -33 15 -47 -2z"/>
<path d="M1780 2820 c0 -36 3 -40 25 -40 23 0 25 4 25 40 0 36 -2 40 -25 40
-22 0 -25 -4 -25 -40z"/>
<path d="M1902 2823 c2 -31 7 -39 27 -41 28 -4 41 12 41 51 0 24 -3 27 -36 27
-35 0 -35 -1 -32 -37z"/>
<path d="M3020 2820 c0 -36 3 -40 25 -40 23 0 25 4 25 40 0 36 -2 40 -25 40
-22 0 -25 -4 -25 -40z"/>
<path d="M3150 2819 c0 -38 1 -40 28 -37 23 3 27 8 30 41 3 35 2 37 -27 37
-30 0 -31 -2 -31 -41z"/>
<path d="M3982 3001 c-19 -12 -30 -70 -24 -130 l5 -51 58 0 59 0 0 43 c-1 112
-44 173 -98 138z"/>
<path d="M1105 2930 c-7 -23 10 -50 30 -50 20 0 37 27 30 50 -4 13 -15 20 -30
20 -15 0 -26 -7 -30 -20z"/>
<path d="M1340 3036 c0 -2 8 -10 18 -17 15 -13 16 -12 3 4 -13 16 -21 21 -21
13z"/>
<path d="M1464 2921 c4 -5 3 -11 -1 -14 -5 -2 -2 -2 5 0 8 1 21 3 30 3 15 0
15 2 2 10 -19 12 -43 13 -36 1z"/>
<path d="M3450 2868 c0 -9 5 -20 10 -23 13 -8 13 5 0 25 -8 13 -10 13 -10 -2z"/>
<path d="M2418 2243 c-24 -4 -28 -9 -28 -35 0 -28 2 -30 27 -23 15 3 31 12 35
18 10 16 10 47 1 46 -5 -1 -20 -4 -35 -6z"/>
<path d="M1806 2504 c-23 -23 -19 -61 9 -89 19 -20 34 -25 72 -25 69 0 95 21
91 73 -3 37 -6 42 -30 45 -18 2 -31 -4 -43 -20 l-16 -23 -22 28 c-26 31 -39
34 -61 11z"/>
<path d="M3108 2495 l-22 -25 -22 21 c-28 27 -56 21 -68 -14 -8 -22 -6 -32 11
-55 17 -22 29 -28 71 -30 44 -3 56 1 77 22 28 29 32 67 9 90 -21 22 -31 20
-56 -9z"/>
<path d="M980 2435 c-17 -20 -5 -45 20 -45 11 0 23 7 26 15 6 15 -11 45 -26
45 -4 0 -13 -7 -20 -15z"/>
<path d="M1404 2284 c3 -9 6 -36 6 -60 0 -37 3 -44 20 -44 18 0 20 7 20 60 0
58 -1 60 -26 60 -20 0 -25 -4 -20 -16z"/>
<path d="M1490 2240 c0 -57 1 -60 25 -60 24 0 25 3 25 60 0 57 -1 60 -25 60
-24 0 -25 -3 -25 -60z"/>
<path d="M1570 2240 c0 -57 1 -60 25 -60 24 0 25 3 25 60 0 57 -1 60 -25 60
-24 0 -25 -3 -25 -60z"/>
<path d="M3955 2430 c-8 -26 1 -40 26 -40 25 0 35 25 19 45 -17 21 -37 19 -45
-5z"/>
<path d="M3368 2240 c3 -51 7 -60 23 -60 17 0 19 8 19 60 0 56 -2 60 -22 60
-22 0 -23 -3 -20 -60z"/>
<path d="M3444 2263 c3 -21 6 -48 6 -60 0 -16 6 -23 20 -23 18 0 20 7 20 60 0
58 -1 60 -26 60 -25 0 -26 -2 -20 -37z"/>
<path d="M3530 2240 c0 -53 2 -60 20 -60 18 0 20 7 20 60 0 53 -2 60 -20 60
-18 0 -20 -7 -20 -60z"/>
<path d="M1635 1960 c11 -5 29 -9 40 -9 l20 0 -20 9 c-11 5 -29 9 -40 9 l-20
0 20 -9z"/>
<path d="M2929 1653 c-13 -17 -13 -17 6 -3 11 8 22 16 24 17 2 2 0 3 -6 3 -6
0 -17 -8 -24 -17z"/>
<path d="M2035 4365 c-5 -2 -55 -18 -110 -35 -145 -46 -244 -89 -256 -111 -7
-13 -6 -25 2 -40 14 -26 35 -23 149 24 47 20 121 45 165 57 44 12 91 25 105
29 29 7 41 58 18 72 -13 9 -53 11 -73 4z"/>
<path d="M2868 4344 c-11 -23 -10 -29 9 -44 12 -9 44 -20 71 -24 60 -8 171
-45 264 -88 53 -24 74 -29 86 -21 24 15 27 41 7 64 -32 34 -325 139 -391 139
-27 0 -37 -5 -46 -26z"/>
<path d="M1448 4102 c-138 -87 -249 -187 -343 -307 -34 -44 -70 -95 -79 -113
-34 -66 1 -107 51 -60 14 12 49 55 78 93 64 87 207 219 323 300 92 64 112 96
76 122 -10 7 -21 13 -24 13 -3 0 -40 -22 -82 -48z"/>
<path d="M3522 4059 c-13 -20 -8 -27 75 -102 145 -133 216 -208 272 -284 55
-76 84 -91 111 -58 17 21 6 45 -67 143 -95 129 -235 262 -320 306 -42 21 -56
20 -71 -5z"/>
<path d="M710 2946 c-15 -19 -9 -56 12 -69 34 -22 66 41 36 71 -16 16 -33 15
-48 -2z"/>
</g>
</svg>
